<?xml version="1.0" ?><!DOCTYPE svg  PUBLIC '-//W3C//DTD SVG 1.1//EN'  'http://www.w3.org/Graphics/SVG/1.1/DTD/svg11.dtd'><svg enable-background="new 0 0 64 64" height="64px" id="Layer_1" version="1.1" viewBox="0 0 64 64" width="64px" xml:space="preserve" xmlns="http://www.w3.org/2000/svg" xmlns:xlink="http://www.w3.org/1999/xlink"><g><g><path d="M32,29.1H15.1v15c0,8.3,6.7,15,15,15h3.8    c8.3,0,15-6.7,15-15v-15H32z" fill="none" stroke="#FFFFFF" stroke-miterlimit="10" stroke-width="2"/><path d="M45.9,43.1c0,6.6-5.4,12-12,12" fill="none" stroke="#FFFFFF" stroke-linecap="round" stroke-miterlimit="10"/><path d="M33.9,10.9H32v2.8c1.3,0,2.4,1.1,2.4,2.4v5.5    c0,1.3-1.1,2.4-2.4,2.4v5h16.9v-3.2C48.9,17.6,42.2,10.9,33.9,10.9z" fill="none" stroke="#FFFFFF" stroke-miterlimit="10" stroke-width="2"/><path d="M29.6,21.7v-5.5c0-1.3,1.1-2.4,2.4-2.4v-2.8h-1.9    c-8.3,0-15,6.7-15,15v3.2H32v-5C30.7,24.1,29.6,23,29.6,21.7z" fill="none" stroke="#FFFFFF" stroke-miterlimit="10" stroke-width="2"/></g><line fill="none" stroke="#FFFFFF" stroke-linecap="round" stroke-miterlimit="10" x1="32" x2="32" y1="10.9" y2="4.9"/></g></svg>